<svg width="12" height="17" viewBox="0 0 12 17" fill="none" xmlns="http://www.w3.org/2000/svg">
<path fill-rule="evenodd" clip-rule="evenodd" d="M5.98738 8.20688C5.16062 8.20688 4.49054 7.53679 4.49054 6.71004C4.49054 5.88328 5.16062 5.21319 5.98738 5.21319C6.81414 5.21319 7.48423 5.88328 7.48423 6.71004C7.48423 7.53679 6.81414 8.20688 5.98738 8.20688ZM5.98738 4.21529C4.60978 4.21529 3.49264 5.33194 3.49264 6.71004C3.49264 8.08813 4.60978 9.20478 5.98738 9.20478C7.36498 9.20478 8.48212 8.08813 8.48212 6.71004C8.48212 5.33194 7.36498 4.21529 5.98738 4.21529ZM5.98738 15.1922C5.15763 15.1966 0.997897 8.79614 0.997897 6.71004C0.997897 3.95484 3.23169 1.72055 5.98738 1.72055C8.74307 1.72055 10.9769 3.95484 10.9769 6.71004C10.9769 8.7682 6.80416 15.1966 5.98738 15.1922ZM5.98738 0.722656C2.68085 0.722656 0 3.40351 0 6.71004C0 9.21376 4.99198 16.6945 5.98738 16.689C6.96732 16.6945 11.9748 9.17983 11.9748 6.71004C11.9748 3.40351 9.29391 0.722656 5.98738 0.722656Z" fill="#7F7F7F"/>
</svg>
