<svg width="35" height="36" viewBox="0 0 35 36" fill="none" xmlns="http://www.w3.org/2000/svg">
<path d="M17.4688 24.1094C14.0312 24.1094 11.2188 21.2969 11.2188 17.8594C11.2188 14.4219 14.0312 11.6094 17.4688 11.6094C20.9062 11.6094 23.7188 14.4219 23.7188 17.8594C23.7188 21.2969 20.9062 24.1094 17.4688 24.1094ZM16.1406 8.83594V0.4375H18.7969V8.83594H16.1406ZM24.7734 12.4297L22.8984 10.5547L28.8359 4.57812L30.7109 6.49219L24.7734 12.4297ZM26.4922 19.1875V16.5312H34.8906V19.1875H26.4922ZM28.8359 31.1016L22.8984 25.1641L24.7734 23.2891L30.7109 29.2266L28.8359 31.1016ZM16.1406 35.2422V26.8438H18.7969V35.2422H16.1406ZM6.10156 31.1016L4.22656 29.2266L10.1641 23.2891L12.0391 25.1641L6.10156 31.1016ZM0.046875 19.1875V16.5312H8.44531V19.1875H0.046875ZM10.1641 12.4297L4.22656 6.49219L6.10156 4.57812L12.0391 10.5547L10.1641 12.4297Z" fill="black"/>
</svg>
