<svg width="41" height="41" viewBox="0 0 41 41" fill="none" xmlns="http://www.w3.org/2000/svg">
<rect x="40.5" y="40.5" width="40" height="40" rx="11.5" transform="rotate(180 40.5 40.5)" fill="white" stroke="#E8ECF4"/>
<path d="M17.8424 27.6329C17.9344 27.7251 18.0436 27.7982 18.1638 27.8481C18.284 27.898 18.4129 27.9236 18.5431 27.9236C18.6732 27.9236 18.8021 27.898 18.9223 27.8481C19.0426 27.7982 19.1518 27.7251 19.2437 27.6329L25.8224 21.0542C25.8958 20.9809 25.9541 20.8939 25.9938 20.7982C26.0335 20.7024 26.054 20.5997 26.054 20.496C26.054 20.3924 26.0335 20.2897 25.9938 20.1939C25.9541 20.0982 25.8958 20.0112 25.8224 19.9379L19.2437 13.3592C18.8558 12.9713 18.2304 12.9713 17.8424 13.3592C17.4545 13.7471 17.4545 14.3725 17.8424 14.7604L23.5741 20.5L17.8345 26.2396C17.4545 26.6196 17.4545 27.2529 17.8424 27.6329Z" fill="#2B7552" stroke="#1E232C" stroke-width="0.2"/>
</svg>
