<svg width="40" height="40" viewBox="0 0 40 40" fill="none" xmlns="http://www.w3.org/2000/svg">
<path d="M23.6074 6.25L25.6289 9.75L25.1963 10L27.2168 13.5L27.6494 13.25V13.249L29.6699 16.75H29.6709L29.2373 17L31.2588 20.5L31.6914 20.25L33.7119 23.749V23.75L33.2793 24L34.2891 25.75C34.5242 26.1573 34.6295 26.5848 34.6289 26.999H35.127C35.1257 28.0637 34.5471 29.0668 33.626 29.6006L33.376 29.1689C33.0175 29.3766 32.5944 29.5 32.124 29.5H30.1035V30H26.0625V29.5H22.0205V30H17.9795V29.5H13.9375V30H9.89648V29.5H7.87598C7.40556 29.5 6.98246 29.3766 6.62402 29.1689L6.37305 29.6006C5.45235 29.0667 4.87337 28.0634 4.87207 26.999H5.37109C5.37056 26.6364 5.45115 26.2638 5.62891 25.9033L5.71094 25.75L6.7207 24L6.28809 23.75L6.28711 23.749L8.30859 20.25L8.74121 20.5L10.7627 17L10.3291 16.75L12.3496 13.249L12.3506 13.25L12.7832 13.5L14.8037 10L14.3711 9.75L16.3916 6.25L16.8242 6.5L17.835 4.75C18.0702 4.34262 18.388 4.03763 18.7471 3.83105L18.498 3.39844C19.4203 2.86788 20.5786 2.86816 21.501 3.39844L21.2529 3.83105C21.612 4.03763 21.9298 4.34261 22.165 4.75L23.1758 6.5L23.6074 6.25Z" fill="white" stroke="#41956A" stroke-dasharray="4 4"/>
</svg>
